<?xml version="1.0" encoding="UTF-8" standalone="no"?>
<svg width="13px" height="13px" viewBox="0 0 13 13" version="1.1" xmlns="http://www.w3.org/2000/svg" xmlns:xlink="http://www.w3.org/1999/xlink">
    <defs></defs>
    <g id="Page-1" stroke="none" stroke-width="1" fill="none" fill-rule="evenodd" opacity="0.68516791">
        <g id="Desktop-Copy" transform="translate(-633.000000, -419.000000)" fill="#3887BE">
            <g id="Page-1" transform="translate(633.000000, 419.000000)">
                <path d="M6.49003164,12.5026484 C9.77303945,12.5107734 12.477852,9.82012891 12.5025824,6.52148047 C12.5272621,3.23964063 9.80929727,0.507914063 6.50892227,0.497351563 C3.22951992,0.486890625 0.516836328,3.18535547 0.497336328,6.47735156 C0.477836328,9.76472656 3.19280508,12.4944727 6.49003164,12.5026484 M-1.5234375e-05,6.49233203 C8.6328125e-05,2.89442969 2.92752383,-0.00116796875 6.56371523,2.52575739e-14 C10.1085004,0.0011171875 13.0018637,2.95516406 12.9999848,6.57124609 C12.9981566,10.111918 10.0405551,13.0024883 6.42218789,13 C2.91340664,12.9976133 -0.000116796875,10.045293 -1.5234375e-05,6.49233203" id="Fill-1"></path>
                <path d="M6.50034531,6.75380469 C5.4769,6.75380469 4.45345469,6.75385547 3.43000938,6.75370312 C3.37084922,6.75365234 3.2953375,6.77437109 3.25577891,6.74593359 C3.16254453,6.67885156 3.08637266,6.58795312 3.00329453,6.50665234 C3.09033359,6.42057812 3.17204063,6.32769922 3.26750938,6.2521875 C3.29904453,6.22720312 3.36592344,6.24624609 3.41665391,6.24624609 C5.47197422,6.24614453 7.52734531,6.24614453 9.58261484,6.24624609 C9.63334531,6.24624609 9.70017344,6.22720312 9.73186094,6.25213672 C9.82748203,6.32744531 9.90944297,6.42012109 9.99673594,6.50604297 C9.90543125,6.58810547 9.81905234,6.67697266 9.72013047,6.74852344 C9.68656406,6.77274609 9.62136094,6.75375391 9.57063047,6.75375391 C8.54723594,6.75380469 7.52373984,6.75380469 6.50034531,6.75380469" id="Fill-4"></path>
            </g>
        </g>
    </g>
</svg>