<?xml version="1.0" encoding="UTF-8" standalone="no"?>
<!-- Created with Inkscape (http://www.inkscape.org/) -->

<svg
   xmlns:dc="http://purl.org/dc/elements/1.1/"
   xmlns:cc="http://creativecommons.org/ns#"
   xmlns:rdf="http://www.w3.org/1999/02/22-rdf-syntax-ns#"
   xmlns:svg="http://www.w3.org/2000/svg"
   xmlns="http://www.w3.org/2000/svg"
   xmlns:sodipodi="http://sodipodi.sourceforge.net/DTD/sodipodi-0.dtd"
   xmlns:inkscape="http://www.inkscape.org/namespaces/inkscape"
   width="16"
   height="16"
   viewBox="0 0 16 16"
   id="svg4148"
   version="1.1"
   inkscape:version="0.91 r13725"
   sodipodi:docname="background.svg"
   inkscape:export-filename="/Users/mxn/Desktop/symbol.png"
   inkscape:export-xdpi="90.000244"
   inkscape:export-ydpi="90.000244">
  <defs
     id="defs4150">
    <inkscape:path-effect
       effect="spiro"
       id="path-effect4877"
       is_visible="true" />
  </defs>
  <sodipodi:namedview
     id="base"
     pagecolor="#ffffff"
     bordercolor="#666666"
     borderopacity="1.0"
     inkscape:pageopacity="0.0"
     inkscape:pageshadow="2"
     inkscape:zoom="10.48171"
     inkscape:cx="8.5046012"
     inkscape:cy="7.2814248"
     inkscape:document-units="px"
     inkscape:current-layer="layer1"
     showgrid="false"
     units="px"
     inkscape:window-width="1280"
     inkscape:window-height="751"
     inkscape:window-x="0"
     inkscape:window-y="1"
     inkscape:window-maximized="1" />
  <metadata
     id="metadata4153">
    <rdf:RDF>
      <cc:Work
         rdf:about="">
        <dc:format>image/svg+xml</dc:format>
        <dc:type
           rdf:resource="http://purl.org/dc/dcmitype/StillImage" />
        <dc:title></dc:title>
      </cc:Work>
    </rdf:RDF>
  </metadata>
  <g
     inkscape:label="Layer 1"
     inkscape:groupmode="layer"
     id="layer1"
     transform="translate(0,-1036.3622)">
    <path
       style="fill:none;fill-rule:evenodd;stroke:#000000;stroke-width:1px;stroke-linecap:butt;stroke-linejoin:miter;stroke-opacity:1"
       d="m 2.8621284,1037.3477 c 2.5635185,5.7342 4.4524268,0.068 4.4524268,0.068 l 0.067461,-5e-4 c 2.4960576,4.9921 4.1825828,-0.1349 4.1825828,-0.1349 l 0.02385,0 c 2.765902,5.5993 4.091271,0 4.091271,0 l 0.02385,0 c 3.170668,5.9366 4.293654,0 4.293654,0"
       id="path4893"
       inkscape:connector-curvature="0"
       sodipodi:nodetypes="cccccccc" />
    <path
       style="fill:none;fill-rule:evenodd;stroke:#000000;stroke-width:1px;stroke-linecap:butt;stroke-linejoin:miter;stroke-opacity:1"
       d="m -4.1486618,1041.2371 c 2.5635185,5.7342 4.45242682,0.068 4.45242682,0.068 l 0.067461,-5e-4 c 2.49605748,4.9921 4.18258278,-0.1349 4.18258278,-0.1349 l 0.023851,0 c 2.7659014,5.5993 4.0912704,0 4.0912704,0 l 0.02385,0 c 3.1706688,5.9366 4.2936548,0 4.2936548,0"
       id="path4893-1"
       inkscape:connector-curvature="0"
       sodipodi:nodetypes="cccccccc" />
    <path
       style="fill:none;fill-rule:evenodd;stroke:#000000;stroke-width:1px;stroke-linecap:butt;stroke-linejoin:miter;stroke-opacity:1"
       d="m 3.7221911,1045.5303 c 2.5635186,5.7342 4.4524269,0.068 4.4524269,0.068 l 0.067461,-5e-4 c 2.496057,4.9921 4.182583,-0.1349 4.182583,-0.1349 l 0.02385,0 c 2.765901,5.5993 4.09127,0 4.09127,0 l 0.02385,0 c 3.170668,5.9366 4.293654,0 4.293654,0"
       id="path4893-2"
       inkscape:connector-curvature="0"
       sodipodi:nodetypes="cccccccc" />
    <path
       style="fill:none;fill-rule:evenodd;stroke:#000000;stroke-width:1px;stroke-linecap:butt;stroke-linejoin:miter;stroke-opacity:1"
       d="m -3.5762361,1049.3465 c 2.5635185,5.7342 4.4524268,0.068 4.4524268,0.068 l 0.067461,-5e-4 c 2.4960575,4.9921 4.1825828,-0.1349 4.1825828,-0.1349 l 0.023851,0 c 2.7659014,5.5993 4.0912702,0 4.0912702,0 l 0.02385,0 c 3.1706683,5.9366 4.2936543,0 4.2936543,0"
       id="path4893-9"
       inkscape:connector-curvature="0"
       sodipodi:nodetypes="cccccccc" />
  </g>
</svg>
