<?xml version="1.0" encoding="UTF-8" standalone="no"?>
<!-- Created with Inkscape (http://www.inkscape.org/) -->

<svg
   xmlns:dc="http://purl.org/dc/elements/1.1/"
   xmlns:cc="http://creativecommons.org/ns#"
   xmlns:rdf="http://www.w3.org/1999/02/22-rdf-syntax-ns#"
   xmlns:svg="http://www.w3.org/2000/svg"
   xmlns="http://www.w3.org/2000/svg"
   xmlns:sodipodi="http://sodipodi.sourceforge.net/DTD/sodipodi-0.dtd"
   xmlns:inkscape="http://www.inkscape.org/namespaces/inkscape"
   width="16"
   height="16"
   viewBox="0 0 16 16"
   id="svg4148"
   version="1.1"
   inkscape:version="0.92.2 5c3e80d, 2017-08-06"
   sodipodi:docname="heatmap.svg"
   inkscape:export-filename="/Users/mxn/Desktop/symbol.png"
   inkscape:export-xdpi="90.000244"
   inkscape:export-ydpi="90.000244">
  <defs
     id="defs4150" />
  <sodipodi:namedview
     id="base"
     pagecolor="#ffffff"
     bordercolor="#666666"
     borderopacity="1.0"
     inkscape:pageopacity="0.0"
     inkscape:pageshadow="2"
     inkscape:zoom="23.25"
     inkscape:cx="4.7741936"
     inkscape:cy="7.6812068"
     inkscape:document-units="px"
     inkscape:current-layer="layer1"
     showgrid="false"
     units="px"
     inkscape:window-width="1280"
     inkscape:window-height="755"
     inkscape:window-x="0"
     inkscape:window-y="1"
     inkscape:window-maximized="1"
     inkscape:snap-bbox="true" />
  <metadata
     id="metadata4153">
    <rdf:RDF>
      <cc:Work
         rdf:about="">
        <dc:format>image/svg+xml</dc:format>
        <dc:type
           rdf:resource="http://purl.org/dc/dcmitype/StillImage" />
        <dc:title></dc:title>
      </cc:Work>
    </rdf:RDF>
  </metadata>
  <g
     inkscape:label="Layer 1"
     inkscape:groupmode="layer"
     id="layer1"
     transform="translate(0,-1036.3622)">
    <path
       style="opacity:1;fill:#ffffff;fill-opacity:0;fill-rule:evenodd;stroke:#000000;stroke-width:0.99369001;stroke-miterlimit:4;stroke-dasharray:none;stroke-opacity:1"
       d="m 11.237265,1036.8591 a 4.2655011,4.1972104 0 0 0 -4.2658922,4.1979 4.2655011,4.1972104 0 0 0 0.025231,0.427 5.3408028,5.2552965 0 0 0 -1.1586611,-0.1299 5.3408028,5.2552965 0 0 0 -5.34109749,5.2556 5.3408028,5.2552965 0 0 0 5.34109749,5.2557 5.3408028,5.2552965 0 0 0 5.3410983,-5.2557 5.3408028,5.2552965 0 0 0 -0.186318,-1.3664 4.2655011,4.1972104 0 0 0 0.244542,0.012 4.2655011,4.1972104 0 0 0 4.26589,-4.198 4.2655011,4.1972104 0 0 0 -4.26589,-4.1979 z"
       id="path818"
       inkscape:connector-curvature="0" />
    <path
       style="opacity:1;fill:#000000;fill-opacity:0.15686275;fill-rule:evenodd;stroke:none;stroke-width:0.99369001;stroke-miterlimit:4;stroke-dasharray:none;stroke-opacity:1"
       d="m 11.005859,1038.875 c -4.8895767,1.3679 0.321278,7.2823 2.416016,2.7578 0.450567,-1.4666 -0.923376,-2.9624 -2.416016,-2.7578 z m -5.5078121,4.5 c -5.49629855,0.4756 -2.1892763,9.0394 2.2363281,5.9121 2.667642,-1.8963 1.5392118,-6.8607 -2.2363281,-5.9121 z"
       id="path836"
       inkscape:connector-curvature="0" />
  </g>
</svg>
