<?xml version="1.0" encoding="utf-8"?>
<!-- Generator: Adobe Illustrator 19.0.0, SVG Export Plug-In . SVG Version: 6.00 Build 0)  -->
<svg version="1.1" id="Layer_1" xmlns="http://www.w3.org/2000/svg" xmlns:xlink="http://www.w3.org/1999/xlink" x="0px" y="0px"
	 viewBox="0 0 300 300" style="enable-background:new 0 0 300 300;" xml:space="preserve">
<style type="text/css">
	.st0{opacity:0.5;}
	.st1{fill:#39ADCC;}
	.st2{fill:#FFFFFF;}
</style>
<g id="XMLID_3_" class="st0">
	<circle id="XMLID_12_" class="st1" cx="152" cy="152.8" r="133.2"/>
</g>
<g id="XMLID_2_">
	<path class="st1" d="M148.7,5c1.1-1.8,3.7-1.8,4.8,0l9.8,17l13.7,23.7c-12.9-3.4-26-2.4-26-2.4s-15.7-0.5-26,2.9l13.9-24.2L148.7,5
		z"/>
</g>
<g id="XMLID_1_">
	<circle id="XMLID_5_" class="st1" cx="152" cy="152.8" r="69.8"/>
	<path id="XMLID_9_" class="st2" d="M152,227.5c-41.2,0-74.8-33.5-74.8-74.8S110.8,78,152,78s74.8,33.5,74.8,74.8
		S193.3,227.5,152,227.5z M152,88c-35.7,0-64.8,29-64.8,64.8c0,35.7,29,64.8,64.8,64.8c35.7,0,64.8-29,64.8-64.8
		C216.8,117.1,187.7,88,152,88z"/>
</g>
<g id="XMLID_4_">
	<path id="XMLID_6_" class="st1" d="M152,263.2c-60.9,0-110.4-49.5-110.4-110.4S91.2,42.4,152,42.4s110.4,49.5,110.4,110.4
		S212.9,263.2,152,263.2z M152,43.4c-60.3,0-109.4,49.1-109.4,109.4c0,60.3,49.1,109.4,109.4,109.4c60.3,0,109.4-49.1,109.4-109.4
		C261.4,92.5,212.4,43.4,152,43.4z"/>
</g>
</svg>
