<?xml version="1.0" encoding="UTF-8" standalone="no"?>
<svg width="580px" height="156px" viewBox="0 0 580 156" version="1.1" xmlns="http://www.w3.org/2000/svg" xmlns:xlink="http://www.w3.org/1999/xlink">
    <!-- Generator: Sketch 3.8.3 (29802) - http://www.bohemiancoding.com/sketch -->
    <title>layer1</title>
    <desc>Created with Sketch.</desc>
    <defs></defs>
    <g id="Page-1" stroke="none" stroke-width="1" fill="none" fill-rule="evenodd">
        <g id="mapbox" transform="translate(-1.000000, -1.000000)" fill="#FFFFFF">
            <g id="layer1" transform="translate(0.428470, 0.781010)">
                <g id="g3024" transform="translate(0.542850, 0.401720)">
                    <path d="M0.028592,0.417258 L0.028592,122.817276 L18.028592,122.817276 L18.028592,22.017258 L54.028592,83.217258 L90.028592,22.017258 L90.028592,122.817276 L108.028592,122.817276 L108.028592,0.417258 L93.628592,0.417258 C86.428592,0.394218 80.77382,2.217258 77.597342,7.617258 L54.028592,47.667258 L30.459842,7.617258 C27.283364,2.217258 21.628592,0.394218 14.428592,0.417258 L0.028592,0.417258 L0.028592,0.417258 Z" id="path4479"></path>
                    <path d="M315.028592,0.417258 L315.028592,124.617276 L349.228592,124.617276 C374.428592,124.617276 394.228592,104.81724 394.228592,77.817258 C394.228592,50.81724 374.428592,31.01724 349.228592,31.017258 C343.529972,31.041018 338.884892,30.824568 333.028592,30.848598 L333.028592,0.417348 L315.028592,0.417348 L315.028592,0.417258 Z M333.028592,49.017258 L349.228592,49.017258 C364.381892,49.017258 376.228592,62.677008 376.228592,77.817258 C376.228592,92.95632 365.621732,106.617258 349.228592,106.617258 L333.028592,106.617258 L333.028592,49.017258 L333.028592,49.017258 Z" id="path4477"></path>
                    <path d="M165.628592,31.017258 C140.428592,31.017258 122.428592,50.817258 122.428592,77.817258 C122.428592,104.817258 140.428574,124.617276 165.628592,124.617276 L208.828592,124.617276 L208.828592,77.817258 C208.828592,50.817258 190.82861,31.017258 165.628592,31.017258 L165.628592,31.017258 Z M165.628592,49.017258 C180.028592,49.017258 190.828592,61.424226 190.828592,77.817258 L190.828592,106.617258 L165.628592,106.617258 C151.228574,106.617258 140.428628,93.994254 140.428592,77.817258 C140.428574,61.617258 151.228592,49.017258 165.628592,49.017258 L165.628592,49.017258 Z" id="path4475"></path>
                    <path d="M223.228592,31.017258 L223.228592,155.217276 L241.228592,155.217276 L241.228592,124.729776 C247.084856,124.753536 251.729954,124.593516 257.428592,124.617276 C282.628592,124.617276 302.428592,104.817258 302.428592,77.817258 C302.428592,50.817258 282.628592,31.017258 257.428592,31.017258 L223.228592,31.017258 L223.228592,31.017258 Z M241.228592,49.017258 L257.428592,49.017258 C273.821552,49.017258 284.428592,62.678196 284.428592,77.817258 C284.428592,92.957508 272.581892,106.617258 257.428592,106.617258 L241.228592,106.617258 L241.228592,49.017258 L241.228592,49.017258 Z" id="path4473"></path>
                    <path d="M450.028592,31.017258 C425.175812,31.017258 405.028592,51.970374 405.028592,77.817258 C405.028592,103.664142 425.175812,124.617276 450.028592,124.617276 C474.881372,124.617276 495.028592,103.664142 495.028592,77.817258 C495.028592,51.970374 474.881372,31.017258 450.028592,31.017258 L450.028592,31.017258 Z M450.028592,49.017258 C464.940332,49.017258 477.028592,61.911522 477.028592,77.817258 C477.028592,93.722994 464.940332,106.617258 450.028592,106.617258 C435.116852,106.617258 423.028592,93.722994 423.028592,77.817258 C423.028592,61.911522 435.116852,49.017258 450.028592,49.017258 L450.028592,49.017258 Z" id="path4471"></path>
                    <polygon id="path4469" points="493.116092 32.794182 524.447342 76.444182 491.428592 122.7942 513.478592 122.7942 535.472342 91.856682 557.578592 122.7942 579.628592 122.7942 546.553592 76.444182 577.828592 32.794182 555.666092 32.794182 535.472342 60.975432 515.278592 32.794218"></polygon>
                </g>
            </g>
        </g>
    </g>
</svg>