<?xml version="1.0" encoding="utf-8"?>
<!-- Generator: Adobe Illustrator 21.0.2, SVG Export Plug-In . SVG Version: 6.00 Build 0)  -->
<svg version="1.1" id="Layer_1" xmlns="http://www.w3.org/2000/svg" xmlns:xlink="http://www.w3.org/1999/xlink" x="0px" y="0px"
	 viewBox="0 0 50 50" style="enable-background:new 0 0 50 50;" xml:space="preserve">
<style type="text/css">
	.st0{fill:#4264FB;}
	.st1{fill:#FFFFFF;}
</style>
<rect x="0" class="st0" width="50" height="50"/>
<g>
	<path class="st1" d="M25,6.7C14.9,6.7,6.8,14.9,6.8,25S14.9,43.2,25,43.2S43.2,35.1,43.2,25C43.2,14.9,35.1,6.8,25,6.7z M33.7,29.5
		c-6.2,6.2-17.4,4.2-17.4,4.2s-2-11.1,4.2-17.4c3.5-3.5,9.2-3.3,12.8,0.3C37,20.3,37.1,26,33.7,29.5L33.7,29.5z"/>
	<polygon class="st1" points="27.1,17.4 25.3,21.1 21.6,22.9 25.3,24.7 27.1,28.4 28.9,24.7 32.6,22.9 28.9,21.1 	"/>
</g>
</svg>
