<?xml version="1.0" encoding="UTF-8" standalone="no"?>
<svg width="13px" height="13px" viewBox="0 0 13 13" version="1.1" xmlns="http://www.w3.org/2000/svg" xmlns:xlink="http://www.w3.org/1999/xlink">
    <defs></defs>
    <g id="Page-1" stroke="none" stroke-width="1" fill="none" fill-rule="evenodd">
        <g id="Desktop-Copy" transform="translate(-664.000000, -384.000000)" fill="#3887BE">
            <g id="Page-1-Copy-2" transform="translate(664.000000, 384.000000)">
                <path d="M6.50560625,12.5026484 C9.79216875,12.4978242 12.4953055,9.79478906 12.502618,6.50583984 C12.5098797,3.21653516 9.78231719,0.489378906 6.49331719,0.497402344 C3.20421563,0.505425781 0.503719531,3.20576953 0.497321094,6.49294141 C0.490973438,9.78478516 3.21295,12.5074219 6.50560625,12.5026484 M2.03125001e-05,6.49563281 C7.10937501e-05,2.89549609 2.92552813,-0.00106640625 6.56045,2.10942375e-14 C10.1069109,0.001015625 13.0016961,2.95353906 13.0000203,6.56799609 C12.9982938,10.1104453 10.0425203,13.0021836 6.42547344,13 C2.91501641,12.9978672 -3.04687499e-05,10.0470195 2.03125001e-05,6.49563281" id="Fill-1"></path>
                <path d="M6.75167695,6.75167187 L6.75167695,8.89296484 C6.75167695,9.13833984 6.74700508,9.38386719 6.75320039,9.62908984 C6.75797383,9.81850391 6.71440352,9.99253125 6.49934492,9.992125 C6.28459102,9.99161719 6.24574336,9.81753906 6.24655586,9.62817578 C6.25046602,8.68151172 6.2483332,7.73484766 6.2483332,6.75167187 L5.96527852,6.75167187 C5.14450117,6.75167187 4.32367305,6.75030078 3.5028957,6.75273828 C3.31896602,6.75329687 3.14113008,6.73039453 3.13772773,6.5040625 C3.13432539,6.27828906 3.30662617,6.2465 3.49405977,6.24700781 C4.39877852,6.24980078 5.30354805,6.24832812 6.2483332,6.24832812 L6.2483332,5.96999609 C6.2483332,5.19151953 6.25061836,4.41304297 6.24665742,3.63456641 C6.24569258,3.44982422 6.26976289,3.26711328 6.4872082,3.25975 C6.72288398,3.25172656 6.75416523,3.43834766 6.75320039,3.63456641 C6.74949336,4.4045625 6.75167695,5.17455859 6.75167695,5.94455469 L6.75167695,6.24832812 L7.06900898,6.24832812 C7.88130586,6.24832812 8.69365352,6.24980078 9.50595039,6.24716016 C9.69302852,6.24660156 9.86598945,6.27925391 9.86213008,6.50482422 C9.85821992,6.73080078 9.68002852,6.75339844 9.49609883,6.75278906 C8.68380195,6.75025 7.87150508,6.75167187 7.0592082,6.75167187 L6.75167695,6.75167187 Z" id="Fill-4"></path>
            </g>
        </g>
    </g>
</svg>