<?xml version="1.0" encoding="UTF-8" standalone="no"?>
<svg width="10px" height="10px" viewBox="0 0 10 10" version="1.1" xmlns="http://www.w3.org/2000/svg" xmlns:xlink="http://www.w3.org/1999/xlink">
    <!-- Generator: Sketch 41.2 (35397) - http://www.bohemiancoding.com/sketch -->
    <title>Page 1 Copy</title>
    <desc>Created with Sketch.</desc>
    <defs></defs>
    <g id="Page-1" stroke="none" stroke-width="1" fill="none" fill-rule="evenodd" opacity="0.461229011">
        <g id="Desktop-Copy" transform="translate(-251.000000, -309.000000)" fill="#071B32">
            <path d="M255.260269,316.616571 L254.592518,317.284675 C254.075101,317.80176 253.233025,317.80176 252.715608,317.284675 C252.19819,316.766905 252.19819,315.925161 252.715608,315.407433 L254.592518,313.530854 C255.110267,313.013105 255.951679,313.013105 256.469097,313.530854 C256.630773,313.69253 256.736069,313.887591 256.796969,314.093309 C256.846216,314.064798 256.896791,314.04147 256.938262,313.999999 L257.810446,313.128146 C257.698992,312.93827 257.5707,312.755526 257.407407,312.592565 C256.371266,311.556133 254.69039,311.556133 253.653918,312.592565 L251.777339,314.469143 C250.740887,315.505927 250.740887,317.18618 251.777339,318.222964 C252.813791,319.259084 254.494355,319.259084 255.530828,318.222964 L256.953171,316.800601 C256.384848,316.884186 255.801346,316.827163 255.260269,316.616571 M260.222897,313.530854 L258.345675,315.407412 C257.309534,316.444196 255.628659,316.444196 254.592518,315.407412 C254.429225,315.244782 254.301576,315.061375 254.189458,314.872162 L255.061663,313.999978 C255.103134,313.958154 255.15433,313.934204 255.203246,313.906004 C255.263504,314.112096 255.3688,314.307115 255.530807,314.469123 C256.048225,314.986851 256.89028,314.986208 257.407386,314.469123 L259.283965,312.592544 C259.801714,312.074774 259.801714,311.233051 259.283965,310.715613 C258.766838,310.198195 257.925135,310.198195 257.407386,310.715613 L256.739925,311.383716 C256.198558,311.172772 255.615036,311.116081 255.047065,311.199355 L256.469076,309.777323 C257.50586,308.740892 259.186092,308.740892 260.222876,309.777323 C261.259038,310.813817 261.259038,312.494402 260.222897,313.530854" id="Page-1-Copy"></path>
        </g>
    </g>
</svg>